<svg xmlns="http://www.w3.org/2000/svg" xmlns:xlink="http://www.w3.org/1999/xlink" width="18.459" height="15.724" viewBox="0 0 18.459 15.724"><defs><style>.a{fill:#15004f;}.b{clip-path:url(#a);}</style><clipPath id="a"><rect class="a" width="18.459" height="15.724"/></clipPath></defs><g transform="translate(0 0)"><g transform="translate(0 0)"><g class="b"><path class="a" d="M769.719,398.575a7.321,7.321,0,1,0-8.915,9.644h1.813a.6.6,0,1,0,0-1.209H760.8a3.626,3.626,0,1,1-.021-7.253.628.628,0,0,0,.665-.516,3.621,3.621,0,0,1,7.169,0,.653.653,0,0,0,.648.516,3.626,3.626,0,1,1,0,7.253h-1.813a.6.6,0,1,0,0,1.209h1.813a4.835,4.835,0,0,0,.454-9.644Zm0,0" transform="translate(-755.686 -394.58)"/></g><path class="a" d="M870.362,495.057a.6.6,0,0,0,.855-.855l-3.022-3.022a.6.6,0,0,0-.855,0l-3.022,3.022a.6.6,0,0,0,.854.855l1.99-1.99v7.607a.6.6,0,1,0,1.209,0v-7.607Zm0,0" transform="translate(-858.419 -485.825)"/></g></g></svg>