<svg xmlns="http://www.w3.org/2000/svg" xmlns:xlink="http://www.w3.org/1999/xlink" width="557" height="280" viewBox="0 0 557 280"><defs><style>.a{fill:#fff;stroke:#707070;}.b{clip-path:url(#a);}.c,.d{mix-blend-mode:color-dodge;isolation:isolate;}.c{fill:url(#b);}.d{fill:url(#d);}</style><clipPath id="a"><rect class="a" width="557" height="280" transform="translate(0 -7)"/></clipPath><linearGradient id="b" y1="0.5" x2="1" y2="0.5" gradientUnits="objectBoundingBox"><stop offset="0"/><stop offset="0.229" stop-color="#040404"/><stop offset="0.493" stop-color="#121212"/><stop offset="0.771" stop-color="#292929"/><stop offset="1" stop-color="#424242"/></linearGradient><linearGradient id="d" x1="0.381" y1="0.121" x2="0.677" y2="0.922" xlink:href="#b"/></defs><g transform="translate(0 30)"><g transform="translate(0 -23)"><g class="b"><g transform="translate(-47.69 -90.287)"><path class="c" d="M99.3.1c54.914.129,99.535,50.734,99.665,113.03s-44.282,112.69-99.2,112.561S.233,174.952.1,112.657,44.386-.033,99.3.1Z" transform="matrix(0.017, -1, 1, 0.017, 450.751, 319.693)"/><path class="c" d="M99.3.1c54.914.129,99.535,50.734,99.665,113.03s-44.282,112.69-99.2,112.561S.233,174.952.1,112.657,44.386-.033,99.3.1Z" transform="matrix(0.017, -1, 1, 0.017, 186.227, 260.659)"/><path class="d" d="M18.767,123.606c36.719-54.34,86.283-66.487,145.638-68.13,50.787-1.4,105.16,8.063,152.979-12.294,47.673-20.294,81.651-54.194,131.983-54.847,67.481-.875,94.143,47.08,87.647,95.782-9.008,67.526-74.069,104.932-136.739,104.428-51.86-.416-106.718-1.912-154.721,31.562-44.215,30.83-76.162,94.874-135.691,99.795C42.349,325.483-49.147,224.108,18.767,123.606Z" transform="matrix(-0.788, -0.616, 0.616, -0.788, 434.33, 570.884)"/></g></g></g></g></svg>